<svg viewBox="0 0 321 100" fill="none" xmlns="http://www.w3.org/2000/svg"><g clip-path="url(#clip0)"><path d="M168.869 25.125a6.494 6.494 0 01-6.507 6.507 6.493 6.493 0 01-6.506-6.507c0-3.604 2.803-6.506 6.506-6.506 3.704.1 6.507 3.003 6.507 6.506zm-26.827 13.113v1.602s-3.103-4.004-9.71-4.004c-10.911 0-19.419 8.308-19.419 19.82 0 11.411 8.408 19.82 19.419 19.82 6.707 0 9.71-4.105 9.71-4.105v1.702c0 .8.601 1.402 1.401 1.402h8.109V36.837h-8.109c-.8 0-1.401.7-1.401 1.401zm0 24.124c-1.501 2.203-4.504 4.104-8.108 4.104-6.406 0-11.311-4.003-11.311-10.81s4.905-10.811 11.311-10.811c3.503 0 6.707 2.002 8.108 4.104v13.413zm15.516-25.525h9.609v37.638h-9.609V36.837zm143.543-1.001c-6.607 0-9.71 4.004-9.71 4.004V18.719h-9.609v55.756h8.108c.801 0 1.401-.701 1.401-1.402v-1.702s3.103 4.105 9.71 4.105c10.911 0 19.419-8.409 19.419-19.82 0-11.412-8.508-19.82-19.319-19.82zm-1.601 30.53c-3.704 0-6.607-1.901-8.109-4.104V48.85c1.502-2.002 4.705-4.104 8.109-4.104 6.406 0 11.311 4.004 11.311 10.81 0 6.807-4.905 10.811-11.311 10.811zm-22.723-14.214v22.423h-9.61V53.253c0-6.206-2.002-8.709-7.407-8.709-2.903 0-5.906 1.502-7.808 3.704v26.227h-9.61V36.837h7.608c.801 0 1.401.7 1.401 1.401v1.602c2.803-2.903 6.507-4.004 10.211-4.004 4.204 0 7.707 1.201 10.51 3.603 3.403 2.803 4.705 6.407 4.705 12.713zm-57.758-16.316c-6.607 0-9.71 4.004-9.71 4.004V18.719H199.7v55.756h8.108c.801 0 1.401-.701 1.401-1.402v-1.702s3.103 4.105 9.71 4.105c10.911 0 19.419-8.409 19.419-19.82.1-11.412-8.408-19.82-19.319-19.82zm-1.602 30.53c-3.703 0-6.606-1.901-8.108-4.104V48.85c1.502-2.002 4.705-4.104 8.108-4.104 6.407 0 11.312 4.004 11.312 10.81 0 6.807-4.905 10.811-11.312 10.811zm-26.026-30.53c2.903 0 4.405.5 4.405.5v8.91s-8.008-2.704-13.013 3.002v26.327h-9.61V36.837h8.108c.801 0 1.402.7 1.402 1.401v1.602c1.802-2.102 5.705-4.004 8.708-4.004zm-99.8 35.235c-.5-1.201-1-2.502-1.5-3.603-.802-1.802-1.602-3.504-2.303-5.106l-.1-.1c-6.907-15.015-14.315-30.23-22.122-45.245l-.3-.6a204.31 204.31 0 01-2.403-4.705c-1.001-1.802-2.002-3.704-3.604-5.506C56.056 2.202 51.452 0 46.547 0c-5.005 0-9.51 2.202-12.813 6.006-1.502 1.802-2.603 3.704-3.604 5.505-.8 1.602-1.601 3.204-2.402 4.705l-.3.6C19.72 31.833 12.211 47.048 5.304 62.063l-.1.2c-.7 1.602-1.501 3.304-2.302 5.105A65.907 65.907 0 001.4 70.971c-1.3 3.704-1.701 7.207-1.2 10.81 1.1 7.508 6.105 13.815 13.012 16.617C15.816 99.5 18.52 100 21.321 100c.801 0 1.802-.1 2.603-.2 3.303-.4 6.707-1.502 10.01-3.404 4.104-2.302 8.008-5.605 12.412-10.41 4.405 4.805 8.409 8.108 12.413 10.41 3.303 1.902 6.707 3.003 10.01 3.404.8.1 1.802.2 2.602.2 2.803 0 5.606-.5 8.109-1.602 7.007-2.802 11.911-9.209 13.013-16.616.8-3.504.4-7.007-.901-10.71zm-45.144 5.205c-5.406-6.806-8.91-13.213-10.11-18.618-.501-2.303-.601-4.305-.3-6.106.2-1.602.8-3.004 1.6-4.205 1.903-2.702 5.106-4.404 8.81-4.404 3.703 0 7.006 1.602 8.808 4.404.801 1.201 1.402 2.603 1.602 4.205.3 1.801.2 3.904-.3 6.106-1.202 5.305-4.705 11.711-10.11 18.618zm39.94 4.705c-.701 5.205-4.205 9.71-9.11 11.712-2.402 1-5.005 1.301-7.607 1-2.503-.3-5.005-1.1-7.608-2.602-3.603-2.002-7.207-5.105-11.411-9.71 6.606-8.108 10.61-15.515 12.112-22.122.7-3.103.8-5.906.5-8.508-.4-2.503-1.301-4.805-2.702-6.807-3.103-4.505-8.309-7.107-14.114-7.107-5.806 0-11.012 2.702-14.115 7.107-1.401 2.002-2.302 4.304-2.702 6.807-.4 2.602-.3 5.505.5 8.508 1.502 6.607 5.606 14.114 12.112 22.222-4.104 4.605-7.807 7.708-11.411 9.71-2.603 1.502-5.105 2.302-7.608 2.603-2.702.3-5.305-.1-7.607-1.001-4.905-2.002-8.409-6.507-9.11-11.712-.3-2.502-.1-5.005.901-7.808.3-1 .801-2.002 1.302-3.203.7-1.601 1.501-3.303 2.302-5.005l.1-.2c6.907-14.915 14.314-30.13 22.022-44.945l.3-.6c.801-1.502 1.602-3.104 2.403-4.605.8-1.602 1.702-3.103 2.803-4.405 2.102-2.402 4.905-3.703 8.008-3.703 3.103 0 5.906 1.3 8.008 3.703 1.1 1.302 2.002 2.803 2.803 4.405.8 1.501 1.601 3.103 2.402 4.604l.3.6a1327.833 1327.833 0 0121.922 45.046v.1c.8 1.602 1.502 3.404 2.302 5.005.5 1.201 1.001 2.202 1.302 3.203.8 2.603 1.1 5.105.7 7.708z" fill="#000"/></g><defs><clipPath id="clip0"><path fill="#fff" d="M0 0h320.42v100H0z"/></clipPath></defs></svg>
